<svg width="36" height="38" viewBox="0 0 36 38" fill="none" xmlns="http://www.w3.org/2000/svg">
<g filter="url(#filter0_d_17_729)">
<path d="M30.65 15.3779C30.5326 15.1377 30.5326 14.8622 30.65 14.622L31.7384 12.3956C32.3443 11.1559 31.8642 9.67838 30.6454 9.03168L28.4562 7.87016C28.2201 7.74489 28.0582 7.52193 28.0119 7.25868L27.5838 4.81773C27.3454 3.45867 26.0882 2.54541 24.7223 2.73867L22.2686 3.08576C22.0037 3.12315 21.7418 3.038 21.5497 2.85215L19.7686 1.12913C18.7769 0.169712 17.2233 0.169655 16.2316 1.12913L14.4504 2.85232C14.2582 3.03823 13.9964 3.12321 13.7316 3.08593L11.2779 2.73885C9.91144 2.54547 8.65475 3.45884 8.41634 4.8179L7.98821 7.25874C7.94199 7.52205 7.78007 7.74495 7.54395 7.87027L5.35485 9.03179C4.13599 9.67844 3.65588 11.1561 4.26183 12.3958L5.35012 14.6221C5.46752 14.8624 5.46752 15.1379 5.35012 15.378L4.26178 17.6044C3.65583 18.8441 4.13594 20.3216 5.35479 20.9683L7.5439 22.1298C7.78007 22.2551 7.94199 22.4781 7.98821 22.7413L8.41634 25.1823C8.63337 26.4195 9.69424 27.2871 10.9135 27.287C11.0336 27.287 11.1554 27.2786 11.2779 27.2613L13.7316 26.9142C13.9963 26.8766 14.2583 26.9619 14.4505 27.1478L16.2316 28.8708C16.7275 29.3506 17.3637 29.5904 18.0001 29.5903C18.6363 29.5903 19.2728 29.3505 19.7686 28.8708L21.5497 27.1478C21.7419 26.9619 22.0038 26.877 22.2686 26.9142L24.7223 27.2613C26.0889 27.4546 27.3454 26.5413 27.5838 25.1822L28.012 22.7414C28.0582 22.4781 28.2201 22.2552 28.4562 22.1298L30.6454 20.9683C31.8642 20.3217 32.3443 18.844 31.7384 17.6043L30.65 15.3779ZM29.8565 19.4815L27.6674 20.643C26.9695 21.0134 26.4908 21.6722 26.3543 22.4505L25.9262 24.8914C25.8455 25.3512 25.4204 25.66 24.958 25.5948L22.5043 25.2477C21.7218 25.1368 20.9475 25.3887 20.3795 25.938L18.5984 27.661C18.2629 27.9855 17.7373 27.9855 17.4017 27.661L15.6206 25.938C15.1406 25.4737 14.5131 25.222 13.858 25.222C13.738 25.222 13.617 25.2305 13.4959 25.2476L11.0421 25.5947C10.5801 25.66 10.1547 25.3511 10.074 24.8913L9.6458 22.4504C9.50924 21.6721 9.03062 21.0133 8.33262 20.643L6.14352 19.4815C5.73112 19.2627 5.56869 18.7628 5.77369 18.3434L6.86203 16.1169C7.209 15.407 7.209 14.5928 6.86203 13.8829L5.77369 11.6565C5.56869 11.2371 5.73112 10.7372 6.14352 10.5184L8.33262 9.35688C9.03056 8.98648 9.50924 8.32776 9.64574 7.54946L10.0739 5.10856C10.1546 4.64874 10.5796 4.33984 11.042 4.40515L13.4957 4.75224C14.278 4.86298 15.0526 4.61124 15.6205 4.06188L17.4016 2.33887C17.7371 2.01435 18.2628 2.01435 18.5983 2.33887L20.3794 4.06188C20.9474 4.6113 21.7218 4.86298 22.5042 4.75224L24.9579 4.40515C25.4199 4.33978 25.8454 4.64874 25.926 5.10856L26.3542 7.54952C26.4907 8.32781 26.9694 8.9866 27.6674 9.35688L29.8565 10.5184C30.2689 10.7372 30.4313 11.2371 30.2263 11.6565L29.1379 13.8829C28.791 14.5927 28.791 15.407 29.1379 16.1169L30.2263 18.3433C30.4313 18.7628 30.2689 19.2627 29.8565 19.4815Z" fill="#A4ACAD"/>
<path d="M24.1487 8.8512C23.8202 8.52258 23.2873 8.52258 22.9586 8.8512L11.8513 19.9586C11.5227 20.2872 11.5227 20.82 11.8513 21.1487C12.0156 21.313 12.231 21.3952 12.4463 21.3952C12.6617 21.3952 12.8771 21.313 13.0413 21.1487L24.1487 10.0413C24.4774 9.71265 24.4774 9.17988 24.1487 8.8512Z" fill="#A4ACAD"/>
<path d="M14.634 7.42639C12.9327 7.42639 11.5485 8.81058 11.5485 10.5119C11.5485 12.2133 12.9327 13.5975 14.634 13.5975C16.3354 13.5975 17.7196 12.2133 17.7196 10.5119C17.7196 8.81058 16.3354 7.42639 14.634 7.42639ZM14.634 11.9144C13.8607 11.9144 13.2315 11.2853 13.2315 10.5119C13.2315 9.73854 13.8607 9.1094 14.634 9.1094C15.4073 9.1094 16.0366 9.73854 16.0366 10.5119C16.0365 11.2853 15.4073 11.9144 14.634 11.9144Z" fill="#A4ACAD"/>
<path d="M21.3661 16.4025C19.6647 16.4025 18.2805 17.7867 18.2805 19.488C18.2805 21.1894 19.6647 22.5736 21.3661 22.5736C23.0674 22.5736 24.4516 21.1894 24.4516 19.488C24.4516 17.7867 23.0674 16.4025 21.3661 16.4025ZM21.3661 20.8905C20.5927 20.8905 19.9635 20.2614 19.9635 19.488C19.9635 18.7147 20.5927 18.0855 21.3661 18.0855C22.1394 18.0855 22.7686 18.7147 22.7686 19.488C22.7686 20.2614 22.1394 20.8905 21.3661 20.8905Z" fill="#A4ACAD"/>
</g>
<defs>
<filter id="filter0_d_17_729" x="-1" y="0" width="38" height="38" filterUnits="userSpaceOnUse" color-interpolation-filters="sRGB">
<feFlood flood-opacity="0" result="BackgroundImageFix"/>
<feColorMatrix in="SourceAlpha" type="matrix" values="0 0 0 0 0 0 0 0 0 0 0 0 0 0 0 0 0 0 127 0" result="hardAlpha"/>
<feOffset dy="4"/>
<feGaussianBlur stdDeviation="2"/>
<feComposite in2="hardAlpha" operator="out"/>
<feColorMatrix type="matrix" values="0 0 0 0 0 0 0 0 0 0 0 0 0 0 0 0 0 0 0.25 0"/>
<feBlend mode="normal" in2="BackgroundImageFix" result="effect1_dropShadow_17_729"/>
<feBlend mode="normal" in="SourceGraphic" in2="effect1_dropShadow_17_729" result="shape"/>
</filter>
</defs>
</svg>
